<svg xmlns="http://www.w3.org/2000/svg" width="241" height="40" viewBox="0 0 241 40" fill="none"><g clip-path="url(#clip0_501_2832)"><rect width="48" height="39" transform="translate(0 0.5)" fill="white"></rect><path d="M17 3.5V15.5" stroke="#B845C4" stroke-width="6" stroke-miterlimit="10" stroke-linecap="round"></path><path d="M10 11.17C5.83 13.47 3 17.9 3 23C3 30.46 9.04 36.5 16.5 36.5H30V23C30 18.32 27.62 14.2 24 11.78" stroke="#4F4F4F" stroke-width="6" stroke-linecap="round" stroke-linejoin="round"></path><path d="M36.9995 36.37C41.5295 35.65 44.9995 31.73 44.9995 27C44.9995 21.99 41.1195 17.88 36.1895 17.53" stroke="#B845C4" stroke-width="6" stroke-miterlimit="10" stroke-linecap="round"></path></g><path d="M77.7909 38.9109L73.7984 31.1381H56.6977L52.7479 38.9109H48L62.9168 10.1303H67.7914L82.7082 38.9124H77.7924L77.7909 38.9109ZM65.3114 14.3731H65.1435L58.3795 27.6508H72.0769L65.3128 14.3731H65.3114Z" fill="#4F4F4F"></path><path d="M92.7059 39.5C89.4705 39.5 86.9492 38.366 85.8153 35.97C85.0171 34.3309 84.7225 32.3987 84.7225 29.7936V20.928H79.9746V17.6925H84.7225L85.2262 11.2643H88.7547V17.6925H97.7469V20.928H88.7547V29.0793C88.7547 30.8863 88.8387 32.4827 89.3011 33.7006C89.9741 35.5076 91.6957 36.1791 93.7133 36.1791C95.2684 36.1791 96.9487 35.9685 98.2933 35.7594V38.9109C96.613 39.1628 94.5115 39.4985 92.7045 39.4985L92.7059 39.5Z" fill="#4F4F4F"></path><path d="M140.942 38.9109V26.3489C140.942 21.9795 138.631 20.5922 135.017 20.5922C132.16 20.5922 128.924 21.3492 125.059 22.2726C125.437 23.3226 125.562 24.4993 125.562 25.7599V38.9109H121.529V26.3489C121.529 21.9795 119.218 20.5922 115.647 20.5922C112.622 20.5922 109.26 21.3492 106.151 22.1047V38.9109H102.117V17.6925H105.394L105.604 18.9531C109.049 18.1122 113.168 17.1049 116.613 17.1049C118.504 17.1049 120.395 17.3568 122.034 18.2816C122.621 18.6174 123.084 18.9531 123.505 19.3316C128.212 18.1549 132.538 17.1049 135.984 17.1049C138.547 17.1049 140.984 17.5246 142.834 19.2904C144.514 20.8868 144.977 22.9456 144.977 25.7613V38.9124H140.943L140.942 38.9109Z" fill="#4F4F4F"></path><path d="M172.328 37.2733C169.849 38.9963 166.487 39.5 162.58 39.5C158.673 39.5 155.227 38.9963 152.749 37.2733C149.933 35.3411 148.883 32.1896 148.883 28.3238C148.883 24.458 149.933 21.3065 152.749 19.3743C155.227 17.6513 158.547 17.1049 162.58 17.1049C166.614 17.1049 169.849 17.6513 172.328 19.3743C175.185 21.3065 176.194 24.458 176.194 28.2826C176.194 32.1071 175.144 35.3411 172.328 37.2748V37.2733ZM162.58 20.3831C155.984 20.3831 153.084 22.4419 153.084 28.1559C153.084 33.8699 155.941 36.2645 162.58 36.2645C169.219 36.2645 171.992 34.2057 171.992 28.4917C171.992 22.7777 169.135 20.3831 162.58 20.3831Z" fill="#4F4F4F"></path><path d="M194.555 38.4912C192.496 39.4161 189.345 39.5 187.202 39.5C184.681 39.5 181.572 39.3321 178.883 39.1215V35.8021C181.362 36.0966 184.597 36.2645 187.077 36.2645C188.8 36.2645 190.9 36.2218 192.245 35.886C193.841 35.4663 194.22 34.4148 194.22 33.2396C194.22 31.8111 193.548 31.1381 192.118 30.6772C190.27 30.0896 188.211 29.879 185.69 29.3753C180.942 28.5344 178.842 27.022 178.842 23.3255C178.842 21.1828 179.599 19.2079 182.035 18.1152C184.009 17.233 187.077 17.1064 189.093 17.1064C191.446 17.1064 193.925 17.2743 196.53 17.5261V20.6776C194.052 20.4258 191.404 20.2152 188.925 20.2152C187.454 20.2152 185.606 20.2579 184.345 20.5937C182.833 20.9722 182.454 22.0222 182.454 23.0722C182.454 24.4168 183.127 25.131 184.556 25.5508C186.404 26.0971 188.422 26.3077 190.943 26.8114C195.733 27.6523 197.917 29.1647 197.917 32.9878C197.917 35.2984 197.119 37.3572 194.555 38.4927V38.4912Z" fill="#4F4F4F"></path><path opacity="0.6" d="M227.707 39.4985L223.716 31.7257H206.616L202.666 39.4985H197.918L212.833 10.7179H217.708L232.625 39.5H227.709L227.707 39.4985ZM215.228 14.9607H215.06L208.296 28.2384H221.993L215.229 14.9607H215.228Z" fill="#4F4F4F"></path><path opacity="0.6" d="M236.32 39.4985V10.7179H240.69V39.4985H236.32Z" fill="#4F4F4F"></path><defs><clipPath id="clip0_501_2832"><rect width="48" height="39" fill="white" transform="translate(0 0.5)"></rect></clipPath></defs></svg>