<svg id="Layer_1" data-name="Layer 1" xmlns="http://www.w3.org/2000/svg" xmlns:xlink="http://www.w3.org/1999/xlink" viewBox="0 0 1087.28 1039.56"><defs><linearGradient id="linear-gradient" x1="105.12" y1="4319.75" x2="165.95" y2="4319.75" gradientTransform="matrix(1, 0, 0, -1, -43.71, 4414.42)" gradientUnits="userSpaceOnUse"><stop offset="0.01" stop-color="#0a71b4"/><stop offset="1" stop-color="#2480c3"/></linearGradient><linearGradient id="linear-gradient-2" x1="164.18" y1="4313.06" x2="192.27" y2="4313.06" xlink:href="#linear-gradient"/></defs><title>zc_lrgicons_1</title><path d="M32.28,144.47h0c-7.18,0-13-7.46-13-14.64V42c0-7.18,5.83-14.64,13-14.64V144.47Z" transform="translate(-17.79 -22.97)" style="fill:#edeced"/><rect x="1" y="3.33" width="176.15" height="119.21" rx="10" style="fill:none;stroke:#191919;stroke-linecap:round;stroke-linejoin:round;stroke-width:2px"/><line x1="165.04" y1="22.5" x2="168.05" y2="22.5" style="fill:none;stroke:#191919;stroke-linecap:round;stroke-linejoin:round;stroke-width:2px"/><line x1="1" y1="22.5" x2="158.61" y2="22.5" style="fill:none;stroke:#191919;stroke-linecap:round;stroke-linejoin:round;stroke-width:2px"/><ellipse cx="16.32" cy="13.92" rx="1.09" ry="1.07" style="fill:none;stroke:#191919;stroke-linecap:round;stroke-linejoin:round;stroke-width:2px"/><ellipse cx="27.26" cy="13.92" rx="1.09" ry="1.07" style="fill:none;stroke:#191919;stroke-linecap:round;stroke-linejoin:round;stroke-width:2px"/><ellipse cx="38.2" cy="13.92" rx="1.09" ry="1.07" style="fill:none;stroke:#191919;stroke-linecap:round;stroke-linejoin:round;stroke-width:2px"/><path d="M106.14,111.2a9.64,9.64,0,1,1,9.64-9.64,9.66,9.66,0,0,1-9.64,9.64h0m-28.54,0a9.64,9.64,0,1,1,9.64-9.64,9.67,9.67,0,0,1-9.64,9.64h0m28.54-25.93a16.09,16.09,0,0,0-14.27,8.58A16.1,16.1,0,0,0,70.08,87.1,15.89,15.89,0,0,0,68,88.45V75h0a3.28,3.28,0,1,0-6.55,0h0v26.8h0A16.21,16.21,0,0,0,77.8,117.66a16,16,0,0,0,14-8.58,16.17,16.17,0,1,0,14.37-23.81" transform="translate(-17.79 -22.97)" style="fill:url(#linear-gradient)"/><path d="M147.88,112.55l-9-11.09,9-11.08h0a3.16,3.16,0,0,0-.49-4.34h0l-.19-.2a3.81,3.81,0,0,0-4.91.58h0L134.48,96l-7.81-9.55h0a3.82,3.82,0,0,0-4.92-.58,3,3,0,0,0-.86,4.25h0l.19.19h0l9,11.08-9,11.09h0a3,3,0,0,0,.48,4.24l.19.19a3.82,3.82,0,0,0,4.92-.57h0l7.71-9.55,7.81,9.55h0a3.82,3.82,0,0,0,4.92.57,3,3,0,0,0,.86-4.24h0Z" transform="translate(-17.79 -22.97)" style="fill:url(#linear-gradient-2)"/><path d="M257,142.8h0c-7.18,0-13-7.45-13-14.64V40.33c0-7.19,5.83-14.64,13-14.64V142.8Z" transform="translate(-17.79 -22.97)" style="fill:#edeced"/><rect x="225.67" y="1.66" width="176.15" height="119.21" rx="10" style="fill:none;stroke:#191919;stroke-linecap:round;stroke-linejoin:round;stroke-width:2px"/><line x1="391.07" y1="20.84" x2="394.07" y2="20.84" style="fill:none;stroke:#191919;stroke-linecap:round;stroke-linejoin:round;stroke-width:2px"/><line x1="225.67" y1="20.84" x2="383.27" y2="20.84" style="fill:none;stroke:#191919;stroke-linecap:round;stroke-linejoin:round;stroke-width:2px"/><ellipse cx="240.98" cy="12.25" rx="1.09" ry="1.07" style="fill:none;stroke:#191919;stroke-linecap:round;stroke-linejoin:round;stroke-width:2px"/><ellipse cx="251.93" cy="12.25" rx="1.09" ry="1.07" style="fill:none;stroke:#191919;stroke-linecap:round;stroke-linejoin:round;stroke-width:2px"/><ellipse cx="262.87" cy="12.25" rx="1.09" ry="1.07" style="fill:none;stroke:#191919;stroke-linecap:round;stroke-linejoin:round;stroke-width:2px"/><g style="opacity:0.790000021457672"><path d="M351.16,77.39c0-3.76-5.64-4.23-5.64-4.23l-13.26-.85s-.28-3.66-2.91-4.88S321.08,66.86,319,67s-2.63,2.72-2.63,5.35V78c0,1.88-.94,2.73-2.45,2.82h-7.52c-2.06-.18-3.75.19-3.75,2s2.44,19.92,5.82,23.31c2,2,14,3.38,16.55,3.38s1.69-7.61,2.35-7.61,1.5,4.32,5.45,5.36,9.3.84,9.58,3.66c.38,3.85.76,8.74-1.78,9.12l-5.55.19c-3.85-.29-2.82-4.52-1.13-4.52s2.54-.09,2.54-.09l.19-4.61s-8.74-1-9.12,5c-.37,5.45.57,8.08,1.32,8.64s1.88,1.7,12.59,1.7C356.7,126,351.16,81.24,351.16,77.39Zm-7.34,18.33c-.37.37-2-1-3.29-1s-2.44,1-2.72.66.28-3.57,2.72-3.57S344.2,95.34,343.82,95.72Z" transform="translate(-17.79 -22.97)" style="fill:#737779;stroke:#3a3d3f;stroke-miterlimit:10;stroke-width:0.639999985694885px"/><path d="M314.78,77.86c0-.75.19-8.84.19-8.84L304.54,79.36H313C314.59,79.36,314.78,78.61,314.78,77.86Z" transform="translate(-17.79 -22.97)" style="fill:#737779;stroke:#3a3d3f;stroke-miterlimit:10;stroke-width:0.639999985694885px"/></g><path d="M482.59,142.92h0c-7.18,0-13-7.46-13-14.64V40.44c0-7.18,5.83-14.64,13-14.64V142.92Z" transform="translate(-17.79 -22.97)" style="fill:#edeced"/><rect x="451.31" y="1.78" width="176.15" height="119.21" rx="10" style="fill:none;stroke:#191919;stroke-linecap:round;stroke-linejoin:round;stroke-width:2px"/><line x1="615.35" y1="20.95" x2="618.35" y2="20.95" style="fill:none;stroke:#191919;stroke-linecap:round;stroke-linejoin:round;stroke-width:2px"/><line x1="451.31" y1="20.95" x2="608.92" y2="20.95" style="fill:none;stroke:#191919;stroke-linecap:round;stroke-linejoin:round;stroke-width:2px"/><ellipse cx="466.63" cy="12.37" rx="1.09" ry="1.07" style="fill:none;stroke:#191919;stroke-linecap:round;stroke-linejoin:round;stroke-width:2px"/><ellipse cx="477.57" cy="12.37" rx="1.09" ry="1.07" style="fill:none;stroke:#191919;stroke-linecap:round;stroke-linejoin:round;stroke-width:2px"/><ellipse cx="488.51" cy="12.37" rx="1.09" ry="1.07" style="fill:none;stroke:#191919;stroke-linecap:round;stroke-linejoin:round;stroke-width:2px"/><polygon points="524.69 42.97 506.12 55.12 518.95 65.36 537.61 53.78 524.69 42.97" style="fill:#3072b8"/><polygon points="506.12 75.61 524.69 87.67 537.61 76.85 518.95 65.36 506.12 75.61" style="fill:#3072b8"/><polygon points="537.61 76.85 550.63 87.67 569.11 75.61 556.28 65.36 537.61 76.85" style="fill:#3072b8"/><polygon points="569.11 55.12 550.63 42.97 537.61 53.78 556.28 65.36 569.11 55.12" style="fill:#3072b8"/><polygon points="537.71 79.24 524.69 89.97 519.14 86.33 519.14 90.44 537.71 101.55 556.28 90.44 556.28 86.33 550.73 89.97 537.71 79.24" style="fill:#3072b8"/><path d="M711.85,143.2h0c-7.19,0-13-7.45-13-14.64V40.73c0-7.19,5.82-14.64,13-14.64V143.2Z" transform="translate(-17.79 -22.97)" style="fill:#edeced"/><rect x="680.56" y="2.06" width="176.15" height="119.21" rx="10" style="fill:none;stroke:#191919;stroke-linecap:round;stroke-linejoin:round;stroke-width:2px"/><line x1="844.6" y1="21.23" x2="847.61" y2="21.23" style="fill:none;stroke:#191919;stroke-linecap:round;stroke-linejoin:round;stroke-width:2px"/><line x1="680.56" y1="21.23" x2="838.17" y2="21.23" style="fill:none;stroke:#191919;stroke-linecap:round;stroke-linejoin:round;stroke-width:2px"/><ellipse cx="695.88" cy="12.65" rx="1.09" ry="1.07" style="fill:none;stroke:#191919;stroke-linecap:round;stroke-linejoin:round;stroke-width:2px"/><ellipse cx="706.82" cy="12.65" rx="1.09" ry="1.07" style="fill:none;stroke:#191919;stroke-linecap:round;stroke-linejoin:round;stroke-width:2px"/><ellipse cx="717.76" cy="12.65" rx="1.09" ry="1.07" style="fill:none;stroke:#191919;stroke-linecap:round;stroke-linejoin:round;stroke-width:2px"/><path id="path4256" d="M770.31,124.41c-5.91-1.42-9.16-6.1-9.16-13a10.39,10.39,0,0,1,.71-4.68c1.32-3.46,4.89-6.11,9.67-7.13,2.34-.51,3.06-1,3.06-2.24a9.19,9.19,0,0,1,.61-2.44c1.53-4.49,4.38-8.25,7.43-9.78a15.19,15.19,0,0,1,8.66-1.93c5.5,0,8.24,1.22,12.11,5.29l2.14,2.24,1.94-.61c9.16-3.16,18.33,2.24,19,11.2l.2,2.44,1.84.62c5.19,1.83,7.53,5.7,7.12,11.4-.3,3.77-2,6.72-4.78,8.15l-1.33.71-28.91.1c-22.1,0-29.13,0-30.35-.31Z" transform="translate(-17.79 -22.97)" style="fill:#2251a3"/><path id="path4248" d="M748.72,120.44a14.52,14.52,0,0,1-8.75-7.33c-1-1.93-1-2.24-1-5.7,0-3.26.1-3.87.81-5.5A12.72,12.72,0,0,1,748.42,95a5.08,5.08,0,0,0,1.73-.72,10,10,0,0,0,.3-2.34,16.36,16.36,0,0,1,11.1-15,17.58,17.58,0,0,1,11.41.72c1.22.51,1,.61,3.56-2.75a24.61,24.61,0,0,1,6.93-5.6,18.18,18.18,0,0,1,8.65-1.94,21,21,0,0,1,20,14.46c.92,2.75.92,3.57-.2,3.57a15.79,15.79,0,0,0-3.06.61l-2.14.61-2-2C799,79,789.86,77.78,782,81.65a19.68,19.68,0,0,0-7.53,6.62c-1.33,2-3.06,5.9-3.06,6.82,0,.71-.51,1-2.85,1.73-7.23,2.34-11.4,7.84-11.4,14.76A18.65,18.65,0,0,0,758.7,119c.31.71.51,1.32.41,1.42-.2.31-9.16.21-10.39,0Z" transform="translate(-17.79 -22.97)" style="fill:#2251a3"/><path d="M939.5,142.14h0c-7.19,0-13-7.46-13-14.64V39.66c0-7.18,5.82-14.63,13-14.63V142.14Z" transform="translate(-17.79 -22.97)" style="fill:#edeced"/><rect x="908.21" y="1" width="176.15" height="119.21" rx="10" style="fill:none;stroke:#191919;stroke-linecap:round;stroke-linejoin:round;stroke-width:2px"/><line x1="1072.25" y1="20.17" x2="1075.26" y2="20.17" style="fill:none;stroke:#191919;stroke-linecap:round;stroke-linejoin:round;stroke-width:2px"/><line x1="908.21" y1="20.17" x2="1065.82" y2="20.17" style="fill:none;stroke:#191919;stroke-linecap:round;stroke-linejoin:round;stroke-width:2px"/><ellipse cx="923.53" cy="11.59" rx="1.09" ry="1.07" style="fill:none;stroke:#191919;stroke-linecap:round;stroke-linejoin:round;stroke-width:2px"/><ellipse cx="934.47" cy="11.59" rx="1.09" ry="1.07" style="fill:none;stroke:#191919;stroke-linecap:round;stroke-linejoin:round;stroke-width:2px"/><ellipse cx="945.41" cy="11.59" rx="1.09" ry="1.07" style="fill:none;stroke:#191919;stroke-linecap:round;stroke-linejoin:round;stroke-width:2px"/><g id="Livello_1-2" data-name="Livello 1-2"><polygon points="975.31 102.98 986.95 82.85 1033.44 82.85 1021.79 102.98 975.31 102.98" style="fill:#3e6bb2"/><polygon points="1010.25 82.85 1033.44 82.85 1010.25 42.58 986.95 42.58 1010.25 82.85" style="fill:#ffcb5f"/><polygon points="963.66 82.85 975.31 102.98 998.6 62.71 986.95 42.58 963.66 82.85" style="fill:#20b470"/></g><path d="M32.34,495.51h0c-7.18,0-13-7.45-13-14.64V393c0-7.19,5.83-14.64,13-14.64V495.51Z" transform="translate(-17.79 -22.97)" style="fill:#edeced"/><rect x="1.06" y="354.37" width="176.15" height="119.21" rx="10" style="fill:none;stroke:#191919;stroke-linecap:round;stroke-linejoin:round;stroke-width:2px"/><line x1="165.1" y1="373.55" x2="168.1" y2="373.55" style="fill:none;stroke:#191919;stroke-linecap:round;stroke-linejoin:round;stroke-width:2px"/><line x1="1.06" y1="373.55" x2="158.67" y2="373.55" style="fill:none;stroke:#191919;stroke-linecap:round;stroke-linejoin:round;stroke-width:2px"/><ellipse cx="16.38" cy="364.96" rx="1.09" ry="1.07" style="fill:none;stroke:#191919;stroke-linecap:round;stroke-linejoin:round;stroke-width:2px"/><ellipse cx="27.32" cy="364.96" rx="1.09" ry="1.07" style="fill:none;stroke:#191919;stroke-linecap:round;stroke-linejoin:round;stroke-width:2px"/><ellipse cx="38.26" cy="364.96" rx="1.09" ry="1.07" style="fill:none;stroke:#191919;stroke-linecap:round;stroke-linejoin:round;stroke-width:2px"/><text transform="translate(50.1 434.29) scale(0.97 1)" style="font-size:42.232730865478516px;fill:#f47e21;font-family:VarelaRound-Regular, VarelaRound Regular">A | B</text><path d="M255.59,494.51h0c-7.19,0-13-7.45-13-14.64V392c0-7.19,5.82-14.64,13-14.64V494.51Z" transform="translate(-17.79 -22.97)" style="fill:#edeced"/><rect x="224.3" y="353.37" width="176.15" height="119.21" rx="10" style="fill:none;stroke:#191919;stroke-linecap:round;stroke-linejoin:round;stroke-width:2px"/><line x1="388.34" y1="372.55" x2="391.35" y2="372.55" style="fill:none;stroke:#191919;stroke-linecap:round;stroke-linejoin:round;stroke-width:2px"/><line x1="224.3" y1="372.55" x2="381.91" y2="372.55" style="fill:none;stroke:#191919;stroke-linecap:round;stroke-linejoin:round;stroke-width:2px"/><ellipse cx="239.62" cy="363.96" rx="1.09" ry="1.07" style="fill:none;stroke:#191919;stroke-linecap:round;stroke-linejoin:round;stroke-width:2px"/><ellipse cx="250.56" cy="363.96" rx="1.09" ry="1.07" style="fill:none;stroke:#191919;stroke-linecap:round;stroke-linejoin:round;stroke-width:2px"/><ellipse cx="261.5" cy="363.96" rx="1.09" ry="1.07" style="fill:none;stroke:#191919;stroke-linecap:round;stroke-linejoin:round;stroke-width:2px"/><g id="g2991"><path id="path2993" d="M321.89,464.49a6.2,6.2,0,1,1-1.81-4.41A6,6,0,0,1,321.89,464.49Zm16.62,4A1.93,1.93,0,0,1,338,470a1.9,1.9,0,0,1-1.52.69h-4.39a2,2,0,0,1-2-1.89,20.75,20.75,0,0,0-18.7-18.69,2,2,0,0,1-1.34-.65,2,2,0,0,1-.54-1.4v-4.38a2.1,2.1,0,0,1,2.08-2.08h.16a29.09,29.09,0,0,1,9.93,2.61,29.69,29.69,0,0,1,14.3,14.3A29.08,29.08,0,0,1,338.51,468.49Zm16.62.06a1.88,1.88,0,0,1-.58,1.53,1.93,1.93,0,0,1-1.49.65h-4.65a2,2,0,0,1-1.44-.57,1.94,1.94,0,0,1-.63-1.38,36.44,36.44,0,0,0-3.28-13.26,36.58,36.58,0,0,0-18.42-18.42,36.68,36.68,0,0,0-13.26-3.31,2.07,2.07,0,0,1-1.95-2.05V427.1a1.92,1.92,0,0,1,.65-1.49,1.94,1.94,0,0,1,1.43-.59h.09a45.69,45.69,0,0,1,30.1,13.44,45.78,45.78,0,0,1,9.54,13.81A45.11,45.11,0,0,1,355.13,468.55Z" transform="translate(-17.79 -22.97)" style="fill:none;stroke:#f05a26;stroke-linecap:round;stroke-linejoin:round;stroke-width:2px"/></g><polyline points="564.34 448.8 564.34 450.48 562.66 450.48" style="fill:none;stroke:#f47f22;stroke-linecap:round;stroke-linejoin:round;stroke-width:2px"/><line x1="559.01" y1="450.48" x2="517.6" y2="450.48" style="fill:none;stroke:#f47f22;stroke-linecap:round;stroke-linejoin:round;stroke-width:2px"/><polyline points="515.78 450.48 514.1 450.48 514.1 448.8" style="fill:none;stroke:#f47f22;stroke-linecap:round;stroke-linejoin:round;stroke-width:2px"/><line x1="514.1" y1="445.37" x2="514.1" y2="406.38" style="fill:none;stroke:#f47f22;stroke-linecap:round;stroke-linejoin:round;stroke-width:2px"/><polyline points="514.1 404.7 514.1 402.94 515.78 402.94" style="fill:none;stroke:#f47f22;stroke-linecap:round;stroke-linejoin:round;stroke-width:2px"/><line x1="519.43" y1="402.94" x2="560.83" y2="402.94" style="fill:none;stroke:#f47f22;stroke-linecap:round;stroke-linejoin:round;stroke-width:2px"/><polyline points="562.66 402.94 564.34 402.94 564.34 404.7" style="fill:none;stroke:#f47f22;stroke-linecap:round;stroke-linejoin:round;stroke-width:2px"/><line x1="564.34" y1="408.05" x2="564.34" y2="447.12" style="fill:none;stroke:#f47f22;stroke-linecap:round;stroke-linejoin:round;stroke-width:2px"/><line x1="548.05" y1="434.78" x2="527.9" y2="413.6" style="fill:none;stroke:#f47f22;stroke-linecap:round;stroke-linejoin:round;stroke-width:2px"/><circle cx="547.69" cy="434.78" r="5.77" style="fill:none;stroke:#f47f22;stroke-linecap:round;stroke-linejoin:round;stroke-width:2px"/><line x1="530.38" y1="434.78" x2="550.54" y2="413.6" style="fill:none;stroke:#f47f22;stroke-linecap:round;stroke-linejoin:round;stroke-width:2px"/><circle cx="530.82" cy="434.78" r="5.77" style="fill:none;stroke:#f47f22;stroke-linecap:round;stroke-linejoin:round;stroke-width:2px"/><path d="M483.83,497h0c-7.18,0-13-7.46-13-14.64V394.47c0-7.18,5.83-14.64,13-14.64V497Z" transform="translate(-17.79 -22.97)" style="fill:#edeced"/><rect x="452.55" y="355.81" width="176.15" height="119.21" rx="10" style="fill:none;stroke:#191919;stroke-linecap:round;stroke-linejoin:round;stroke-width:2px"/><line x1="616.59" y1="374.98" x2="619.59" y2="374.98" style="fill:none;stroke:#191919;stroke-linecap:round;stroke-linejoin:round;stroke-width:2px"/><line x1="452.55" y1="374.98" x2="610.16" y2="374.98" style="fill:none;stroke:#191919;stroke-linecap:round;stroke-linejoin:round;stroke-width:2px"/><ellipse cx="467.87" cy="366.4" rx="1.09" ry="1.07" style="fill:none;stroke:#191919;stroke-linecap:round;stroke-linejoin:round;stroke-width:2px"/><ellipse cx="478.81" cy="366.4" rx="1.09" ry="1.07" style="fill:none;stroke:#191919;stroke-linecap:round;stroke-linejoin:round;stroke-width:2px"/><ellipse cx="489.75" cy="366.4" rx="1.09" ry="1.07" style="fill:none;stroke:#191919;stroke-linecap:round;stroke-linejoin:round;stroke-width:2px"/><path d="M800.64,459.75H779.15c-.6-.09-.77-.26-.85-.86V449a.77.77,0,0,1,.85-.76h18.93a.57.57,0,0,0,.59-.52V439.8c0-1.45,0-1.45-1.36-1.45H779.23c-.68-.09-.85-.26-.93-.94v-8.87c0-1.53.08-1.71,1.7-1.71h20.64a.49.49,0,0,0,.51-.51h0v-8.18c0-1.37,0-1.37-1.37-1.37H775.65a8.55,8.55,0,0,0-8,6.57,15.53,15.53,0,0,0-.26,2.73v43.4a.57.57,0,0,0,.51.59h25.84a18.85,18.85,0,0,0,3.07-.34,6.68,6.68,0,0,0,5.29-4.94,11.94,11.94,0,0,0,.25-3.5C802.09,459.83,802,459.75,800.64,459.75Z" transform="translate(-17.79 -22.97)" style="fill:#f7682f"/><path d="M713.49,491.37h0c-7.19,0-13-7.45-13-14.64V388.9c0-7.19,5.82-14.64,13-14.64V491.37Z" transform="translate(-17.79 -22.97)" style="fill:#edeced"/><rect x="682.2" y="350.23" width="176.15" height="119.21" rx="10" style="fill:none;stroke:#191919;stroke-linecap:round;stroke-linejoin:round;stroke-width:2px"/><line x1="682.2" y1="369.4" x2="839.81" y2="369.4" style="fill:none;stroke:#191919;stroke-linecap:round;stroke-linejoin:round;stroke-width:2px"/><ellipse cx="697.52" cy="360.82" rx="1.09" ry="1.07" style="fill:none;stroke:#191919;stroke-linecap:round;stroke-linejoin:round;stroke-width:2px"/><ellipse cx="708.46" cy="360.82" rx="1.09" ry="1.07" style="fill:none;stroke:#191919;stroke-linecap:round;stroke-linejoin:round;stroke-width:2px"/><ellipse cx="719.4" cy="360.82" rx="1.09" ry="1.07" style="fill:none;stroke:#191919;stroke-linecap:round;stroke-linejoin:round;stroke-width:2px"/><path d="M955.53,343.94h5.66a0,0,0,0,1,0,0v40.78a0,0,0,0,1,0,0h-4.4a4.87,4.87,0,0,1-4.87-4.87v-32.3a3.6,3.6,0,0,1,3.6-3.6Z" style="fill:#edeced"/><path d="M956.74,476.27l-.4-.25a18.24,18.24,0,0,1-8.87-15.65V449.81a34.45,34.45,0,0,1,8-22l1.29-1.55Z" transform="translate(-17.79 -22.97)" style="fill:#edeced"/><path d="M956.1,343.37h28.52a0,0,0,0,1,0,0v8a6.44,6.44,0,0,1-6.44,6.44H954.49a2.42,2.42,0,0,1-2.42-2.42v-8A4,4,0,0,1,956.1,343.37Z" style="fill:none;stroke:#191919;stroke-linecap:round;stroke-linejoin:round;stroke-width:2px"/><path d="M1002.41,367.92V392.3a16.37,16.37,0,0,1-16.28,16.44h0a16.35,16.35,0,0,1-16.27-16.42V375.89" transform="translate(-17.79 -22.97)" style="fill:none;stroke:#191919;stroke-linecap:round;stroke-linejoin:round;stroke-width:2px"/><path d="M1028.2,448.28v-1a27.63,27.63,0,0,0-27.63-27.63H974.75a27.63,27.63,0,0,0-27.63,27.63v15a16.34,16.34,0,0,0,13.55,16.13l22.81-.17" transform="translate(-17.79 -22.97)" style="fill:none;stroke:#191919;stroke-linecap:round;stroke-linejoin:round;stroke-width:2px"/><path d="M1005.31,475.57a26.45,26.45,0,0,1,23.35-26.26,26.46,26.46,0,1,0,0,52.53A26.47,26.47,0,0,1,1005.31,475.57Z" transform="translate(-17.79 -22.97)" style="fill:#f3e5db"/><circle cx="1007.48" cy="452.58" r="26.46" style="fill:none;stroke:#f47f22;stroke-linecap:round;stroke-linejoin:round;stroke-width:2px"/><line x1="971.77" y1="455.32" x2="974.56" y2="455.32" style="fill:none;stroke:#191919;stroke-linecap:round;stroke-linejoin:round;stroke-width:2px"/><polygon points="1019.92 445.43 996.96 445.43 1006.19 456.14 1006.17 456.14 1006.17 465.38 1010.71 462.66 1010.71 456.14 1010.69 456.14 1019.92 445.43" style="fill:none;stroke:#f47f22;stroke-linecap:round;stroke-linejoin:round;stroke-width:2px"/><path d="M294.8,174.78h3.84a0,0,0,0,1,0,0v32.74a0,0,0,0,1,0,0h-2.57a4.87,4.87,0,0,1-4.87-4.87V178.39A3.6,3.6,0,0,1,294.8,174.78Z" style="fill:#edeced"/><path d="M298.57,285.55l-.33-.2a14.66,14.66,0,0,1-7.11-12.56V264.3a27.64,27.64,0,0,1,6.4-17.69l1-1.24Z" transform="translate(-17.79 -22.97)" style="fill:#edeced"/><path d="M295.34,174.32h22.1a0,0,0,0,1,0,0v5.17a6.44,6.44,0,0,1-6.44,6.44H293.72a2.42,2.42,0,0,1-2.42-2.42v-5.17a4,4,0,0,1,4-4Z" style="fill:none;stroke:#191919;stroke-linecap:round;stroke-linejoin:round;stroke-width:2px"/><path d="M335.23,198.57v19.57a13.13,13.13,0,0,1-13.07,13.19h0a13.12,13.12,0,0,1-13.06-13.18V205" transform="translate(-17.79 -22.97)" style="fill:none;stroke:#191919;stroke-linecap:round;stroke-linejoin:round;stroke-width:2px"/><path d="M355.94,262.25a22.18,22.18,0,0,0-22.18-22.18H313a22.18,22.18,0,0,0-22.18,22.18v12a13.14,13.14,0,0,0,8,12.11,12.64,12.64,0,0,0,2.85.84l24.44-.08" transform="translate(-17.79 -22.97)" style="fill:none;stroke:#191919;stroke-linecap:round;stroke-linejoin:round;stroke-width:2px"/><path d="M337.69,309.83A66.23,66.23,0,0,1,256,245.5" transform="translate(-17.79 -22.97)" style="fill:none;stroke:#191919;stroke-linecap:round;stroke-linejoin:round;stroke-width:2px"/><path d="M383.49,270.29a65.21,65.21,0,0,1-5.63,10.89" transform="translate(-17.79 -22.97)" style="fill:none;stroke:#191919;stroke-linecap:round;stroke-linejoin:round;stroke-width:2px"/><path d="M386,262.82c-.18.66-.37,1.33-.57,2" transform="translate(-17.79 -22.97)" style="fill:none;stroke:#191919;stroke-linecap:round;stroke-linejoin:round;stroke-width:2px"/><path d="M258.7,226.6a66.17,66.17,0,0,1,129.59,18.9" transform="translate(-17.79 -22.97)" style="fill:none;stroke:#191919;stroke-linecap:round;stroke-linejoin:round;stroke-width:2px"/><polyline points="362.93 214.56 370.51 222.68 378.09 214.56" style="fill:none;stroke:#191919;stroke-linecap:round;stroke-linejoin:round;stroke-width:2px"/><polyline points="245.58 230.4 238 222.27 230.43 230.4" style="fill:none;stroke:#191919;stroke-linecap:round;stroke-linejoin:round;stroke-width:2px"/><path d="M338.62,302.42a27.93,27.93,0,0,1,24.65-27.73,27.38,27.38,0,0,0-3.28-.21,27.94,27.94,0,1,0,0,55.88,29.62,29.62,0,0,0,3.28-.21A27.94,27.94,0,0,1,338.62,302.42Z" transform="translate(-17.79 -22.97)" style="fill:#f3e5db"/><circle cx="341.9" cy="279.43" r="27.94" style="fill:none;stroke:#f47f22;stroke-linecap:round;stroke-linejoin:round;stroke-width:2px"/><polyline points="347.7 264.58 333.35 278.93 351.8 278.93 336.42 294.31" style="fill:none;stroke:#f47f22;stroke-linecap:round;stroke-linejoin:round;stroke-width:2px"/><path d="M485.22,318.78h0c-7.19,0-13-7.46-13-14.64V216.3c0-7.18,5.83-14.64,13-14.64V318.78Z" transform="translate(-17.79 -22.97)" style="fill:#edeced"/><rect x="453.93" y="177.64" width="176.15" height="119.21" rx="10" style="fill:none;stroke:#191919;stroke-linecap:round;stroke-linejoin:round;stroke-width:2px"/><line x1="617.97" y1="196.81" x2="620.98" y2="196.81" style="fill:none;stroke:#191919;stroke-linecap:round;stroke-linejoin:round;stroke-width:2px"/><line x1="453.93" y1="196.81" x2="611.54" y2="196.81" style="fill:none;stroke:#191919;stroke-linecap:round;stroke-linejoin:round;stroke-width:2px"/><ellipse cx="469.25" cy="188.23" rx="1.09" ry="1.07" style="fill:none;stroke:#191919;stroke-linecap:round;stroke-linejoin:round;stroke-width:2px"/><ellipse cx="480.19" cy="188.23" rx="1.09" ry="1.07" style="fill:none;stroke:#191919;stroke-linecap:round;stroke-linejoin:round;stroke-width:2px"/><ellipse cx="491.13" cy="188.23" rx="1.09" ry="1.07" style="fill:none;stroke:#191919;stroke-linecap:round;stroke-linejoin:round;stroke-width:2px"/><path d="M590.71,272.62a7.67,7.67,0,0,0-2.44.35,31.51,31.51,0,0,0-25.74-23.3c-.18-2.1.61-5.41,5.93-8.64l-.17-.35s-8.9,2.79-10.91,8.38c.09-1.75-.52-4.37-4.36-6.2,0,0-.26.09-.18.26.79.7,3.23,3.06,2.18,6.29a31.44,31.44,0,0,0-27.48,23.47,10.16,10.16,0,1,0-4.89,19.72,10.1,10.1,0,0,0,6.2-.44,31.32,31.32,0,0,0,3.31,6.11l8.47-5.67-.09-.09a20.92,20.92,0,0,1-3.84-11.25c-.26-4.63.87-9.25,3.84-12,6.11-5.15,12.74-2.79,16.93,2.18h1.13c4.19-4.88,10.74-7.15,16.76-2,2.88,2.7,4.1,7.24,3.84,11.78a20.72,20.72,0,0,1-3.84,11.43l8.37,5.67a31.65,31.65,0,0,0,3.32-6.11,10.17,10.17,0,1,0,7.42-18.93,11.73,11.73,0,0,0-3.76-.7m-65.18,12.21a2,2,0,0,1-1.92-2.18,2.07,2.07,0,0,1,1.92-1.92,1.73,1.73,0,0,1,1.13.35c0,1.05.09,2.1.18,3.23a1.78,1.78,0,0,1-1.31.52m64.84,0a2.14,2.14,0,0,1-1.4-.52c.09-1.05.17-2.09.17-3.23a2.07,2.07,0,0,1,2.36,3.4,1.71,1.71,0,0,1-1.13.35h0" transform="translate(-17.79 -22.97)" style="fill:#b2bb1e"/><line x1="846.25" y1="369.4" x2="849.26" y2="369.4" style="fill:none;stroke:#191919;stroke-linecap:round;stroke-linejoin:round;stroke-width:2px"/><path d="M712,319.28h0c-7.19,0-13-7.45-13-14.64V216.81c0-7.19,5.82-14.64,13-14.64V319.28Z" transform="translate(-17.79 -22.97)" style="fill:#edeced"/><rect x="680.68" y="178.15" width="176.15" height="119.21" rx="10" style="fill:none;stroke:#191919;stroke-linecap:round;stroke-linejoin:round;stroke-width:2px"/><line x1="844.72" y1="197.32" x2="847.73" y2="197.32" style="fill:none;stroke:#191919;stroke-linecap:round;stroke-linejoin:round;stroke-width:2px"/><line x1="680.68" y1="197.32" x2="838.29" y2="197.32" style="fill:none;stroke:#191919;stroke-linecap:round;stroke-linejoin:round;stroke-width:2px"/><ellipse cx="696" cy="188.73" rx="1.09" ry="1.07" style="fill:none;stroke:#191919;stroke-linecap:round;stroke-linejoin:round;stroke-width:2px"/><ellipse cx="706.94" cy="188.73" rx="1.09" ry="1.07" style="fill:none;stroke:#191919;stroke-linecap:round;stroke-linejoin:round;stroke-width:2px"/><ellipse cx="717.88" cy="188.73" rx="1.09" ry="1.07" style="fill:none;stroke:#191919;stroke-linecap:round;stroke-linejoin:round;stroke-width:2px"/><path d="M804.64,253.39a.53.53,0,0,0-.5-.49c-.24,0-4.75-.33-4.75-.33s-3.12-3.12-3.53-3.45a1.5,1.5,0,0,0-1.31-.16,16.2,16.2,0,0,0-1.81.49c-1.06-3-2.87-5.82-6.23-5.82h-.25a3.8,3.8,0,0,0-3.11-1.73c-7.71,0-11.32,9.6-12.47,14.44L765.35,258c-1.64.49-1.72.57-1.89,2.13-.16,1.15-4.51,34.78-4.51,34.78l33.88,6.4,18.29-4S804.72,253.63,804.64,253.39ZM790.86,250c-.82.33-1.81.58-2.87.91v-.66a14.49,14.49,0,0,0-.66-4.59c1.72.16,2.87,2,3.53,4.34Zm-5.58-4a13.72,13.72,0,0,1,.74,5.16v.33l-5.91,1.81c1.15-4.35,3.28-6.48,5.17-7.3Zm-2.3-2.14a1.48,1.48,0,0,1,1,.33c-2.46,1.15-5.09,4-6.24,9.84-1.64.58-3.19,1-4.67,1.4,1.31-4.35,4.43-11.57,9.92-11.57Z" transform="translate(-17.79 -22.97)" style="fill:#7ec258"/><path d="M804.14,252.9c-.24,0-4.75-.33-4.75-.33s-3.12-3.12-3.53-3.45a.71.71,0,0,0-.49-.24l-2.63,52.41,18.29-4s-6.39-43.55-6.47-43.8A.54.54,0,0,0,804.14,252.9Z" transform="translate(-17.79 -22.97)" style="fill:#4b9648"/><path d="M786.51,263.07l-2.21,6.72a11.82,11.82,0,0,0-4.35-1.06c-3.61,0-3.69,2.21-3.69,2.78,0,3,8,4.27,8,11.49,0,5.66-3.61,9.27-8.45,9.27a11.84,11.84,0,0,1-8.78-3.61l1.56-5.17s3,2.62,5.66,2.62a2.28,2.28,0,0,0,2.38-2.21h0v-.08c0-4-6.56-4.19-6.56-10.75,0-5.49,3.93-10.91,12-10.91A9.19,9.19,0,0,1,786.51,263.07Z" transform="translate(-17.79 -22.97)" style="fill:#fff"/><path d="M987.44,171.21h3.78a0,0,0,0,1,0,0v32.5a0,0,0,0,1,0,0H988.7a4.87,4.87,0,0,1-4.87-4.87v-24A3.6,3.6,0,0,1,987.44,171.21Z" style="fill:#edeced"/><path d="M991.29,281.33l-.33-.2a14.54,14.54,0,0,1-7.06-12.47v-8.42a27.41,27.41,0,0,1,6.36-17.56l1-1.23Z" transform="translate(-17.79 -22.97)" style="fill:#edeced"/><path d="M988,170.75h21.91a0,0,0,0,1,0,0v5.08a6.44,6.44,0,0,1-6.44,6.44H986.37a2.42,2.42,0,0,1-2.42-2.42v-5.08a4,4,0,0,1,4-4Z" style="fill:none;stroke:#191919;stroke-linecap:round;stroke-linejoin:round;stroke-width:2px"/><path d="M1027.68,195v19.43a13,13,0,0,1-13,13.1h0a13,13,0,0,1-13-13.09V201.33" transform="translate(-17.79 -22.97)" style="fill:none;stroke:#191919;stroke-linecap:round;stroke-linejoin:round;stroke-width:2px"/><path d="M1048.23,258.2a22,22,0,0,0-22-22h-20.58a22,22,0,0,0-22,22v11.93a13.06,13.06,0,0,0,8,12,12.82,12.82,0,0,0,2.83.83l24.26-.08" transform="translate(-17.79 -22.97)" style="fill:none;stroke:#191919;stroke-linecap:round;stroke-linejoin:round;stroke-width:2px"/><path d="M1030.12,305.43A65.77,65.77,0,0,1,949,241.57" transform="translate(-17.79 -22.97)" style="fill:none;stroke:#191919;stroke-linecap:round;stroke-linejoin:round;stroke-width:2px"/><path d="M1075.59,266.19A65.35,65.35,0,0,1,1070,277" transform="translate(-17.79 -22.97)" style="fill:none;stroke:#191919;stroke-linecap:round;stroke-linejoin:round;stroke-width:2px"/><path d="M1078.08,258.76q-.27,1-.57,2" transform="translate(-17.79 -22.97)" style="fill:none;stroke:#191919;stroke-linecap:round;stroke-linejoin:round;stroke-width:2px"/><path d="M951.71,222.82a65.69,65.69,0,0,1,128.64,18.75" transform="translate(-17.79 -22.97)" style="fill:none;stroke:#191919;stroke-linecap:round;stroke-linejoin:round;stroke-width:2px"/><polyline points="1055.05 210.69 1062.57 218.75 1070.1 210.69" style="fill:none;stroke:#191919;stroke-linecap:round;stroke-linejoin:round;stroke-width:2px"/><polyline points="938.56 226.41 931.04 218.35 923.52 226.41" style="fill:none;stroke:#191919;stroke-linecap:round;stroke-linejoin:round;stroke-width:2px"/><path d="M1031.05,298.07a27.72,27.72,0,0,1,24.47-27.52,27,27,0,0,0-3.26-.21,27.74,27.74,0,1,0,0,55.47,29.26,29.26,0,0,0,3.26-.21A27.73,27.73,0,0,1,1031.05,298.07Z" transform="translate(-17.79 -22.97)" style="fill:#f3e5db"/><circle cx="1034.17" cy="275.08" r="27.73" style="fill:none;stroke:#f47f22;stroke-linecap:round;stroke-linejoin:round;stroke-width:2px"/><line x1="1031.9" y1="265.3" x2="1031.9" y2="279.9" style="fill:none;stroke:#f47f22;stroke-linecap:round;stroke-linejoin:round;stroke-width:2px"/><line x1="1042.12" y1="279.9" x2="1031.9" y2="279.9" style="fill:none;stroke:#f47f22;stroke-linecap:round;stroke-linejoin:round;stroke-width:2px"/><path d="M58.8,743.69h6a0,0,0,0,1,0,0v42.25a0,0,0,0,1,0,0H60.06a4.87,4.87,0,0,1-4.87-4.87V747.3A3.6,3.6,0,0,1,58.8,743.69Z" style="fill:#edeced"/><path d="M59.54,880l-.42-.25a18.91,18.91,0,0,1-9.18-16.22v-11a35.67,35.67,0,0,1,8.26-22.83l1.34-1.6Z" transform="translate(-17.79 -22.97)" style="fill:#edeced"/><path d="M59.37,743.1h29.7a0,0,0,0,1,0,0v8.54a6.44,6.44,0,0,1-6.44,6.44H57.76a2.42,2.42,0,0,1-2.42-2.42v-8.54a4,4,0,0,1,4-4Z" style="fill:none;stroke:#191919;stroke-linecap:round;stroke-linejoin:round;stroke-width:2px"/><path d="M106.86,767.71V793A17,17,0,0,1,90,810h0a16.94,16.94,0,0,1-16.86-17V776" transform="translate(-17.79 -22.97)" style="fill:none;stroke:#191919;stroke-linecap:round;stroke-linejoin:round;stroke-width:2px"/><path d="M133.59,851v-1.07A28.63,28.63,0,0,0,105,821.28H78.2a28.63,28.63,0,0,0-28.63,28.63v15.51a17,17,0,0,0,10.37,15.63,16.71,16.71,0,0,0,3.67,1.08L87.24,882" transform="translate(-17.79 -22.97)" style="fill:none;stroke:#191919;stroke-linecap:round;stroke-linejoin:round;stroke-width:2px"/><path d="M109.87,879.26A27.42,27.42,0,0,1,134.07,852a28.58,28.58,0,0,0-3.23-.2,27.42,27.42,0,0,0,0,54.84,28.58,28.58,0,0,0,3.23-.2A27.42,27.42,0,0,1,109.87,879.26Z" transform="translate(-17.79 -22.97)" style="fill:#f3e5db"/><circle cx="112.76" cy="856.27" r="27.42" style="fill:none;stroke:#f47f22;stroke-linecap:round;stroke-linejoin:round;stroke-width:2px"/><line x1="75.76" y1="859.11" x2="78.65" y2="859.11" style="fill:none;stroke:#191919;stroke-linecap:round;stroke-linejoin:round;stroke-width:2px"/><line x1="113.4" y1="846.6" x2="113.4" y2="866.81" style="fill:none;stroke:#f47f22;stroke-linecap:round;stroke-linejoin:round;stroke-width:2px"/><line x1="123.51" y1="856.7" x2="103.3" y2="856.7" style="fill:none;stroke:#f47f22;stroke-linecap:round;stroke-linejoin:round;stroke-width:2px"/><path d="M283.1,742.69h6a0,0,0,0,1,0,0v42.25a0,0,0,0,1,0,0h-4.74a4.87,4.87,0,0,1-4.87-4.87V746.3A3.6,3.6,0,0,1,283.1,742.69Z" style="fill:#edeced"/><path d="M283.84,879l-.42-.25a18.94,18.94,0,0,1-9.18-16.22v-11a35.68,35.68,0,0,1,8.27-22.83l1.33-1.6Z" transform="translate(-17.79 -22.97)" style="fill:#edeced"/><path d="M283.67,742.1h29.7a0,0,0,0,1,0,0v8.54a6.44,6.44,0,0,1-6.44,6.44H282.06a2.42,2.42,0,0,1-2.42-2.42v-8.54A4,4,0,0,1,283.67,742.1Z" style="fill:none;stroke:#191919;stroke-linecap:round;stroke-linejoin:round;stroke-width:2px"/><path d="M331.16,766.71V792a17,17,0,0,1-16.86,17h0a16.94,16.94,0,0,1-16.86-17V775" transform="translate(-17.79 -22.97)" style="fill:none;stroke:#191919;stroke-linecap:round;stroke-linejoin:round;stroke-width:2px"/><path d="M357.89,850v-1.07a28.63,28.63,0,0,0-28.63-28.63H302.51a28.63,28.63,0,0,0-28.63,28.63v15.51a17,17,0,0,0,10.36,15.63,16.8,16.8,0,0,0,3.68,1.08l23.63-.18" transform="translate(-17.79 -22.97)" style="fill:none;stroke:#191919;stroke-linecap:round;stroke-linejoin:round;stroke-width:2px"/><path d="M334.18,878.26A27.42,27.42,0,0,1,358.37,851a28.55,28.55,0,0,0-3.22-.2,27.42,27.42,0,1,0,0,54.84,28.55,28.55,0,0,0,3.22-.2A27.42,27.42,0,0,1,334.18,878.26Z" transform="translate(-17.79 -22.97)" style="fill:#f3e5db"/><circle cx="337.06" cy="855.27" r="27.42" style="fill:none;stroke:#f47f22;stroke-linecap:round;stroke-linejoin:round;stroke-width:2px"/><line x1="300.06" y1="858.11" x2="302.95" y2="858.11" style="fill:none;stroke:#191919;stroke-linecap:round;stroke-linejoin:round;stroke-width:2px"/><line x1="337.87" y1="845.6" x2="337.87" y2="865.99" style="fill:none;stroke:#f47f22;stroke-linecap:round;stroke-linejoin:round;stroke-width:2px"/><line x1="337.83" y1="866.69" x2="330.62" y2="859.48" style="fill:none;stroke:#f47f22;stroke-linecap:round;stroke-linejoin:round;stroke-width:2px"/><line x1="337.9" y1="866.69" x2="345.12" y2="859.48" style="fill:none;stroke:#f47f22;stroke-linecap:round;stroke-linejoin:round;stroke-width:2px"/><path d="M498.26,773.45h5.54a0,0,0,0,1,0,0v40.21a0,0,0,0,1,0,0h-4.27a4.87,4.87,0,0,1-4.87-4.87V777.05A3.6,3.6,0,0,1,498.26,773.45Z" style="fill:#edeced"/><path d="M499.65,904.27l-.4-.24a18,18,0,0,1-8.74-15.44V878.17a34,34,0,0,1,7.87-21.73l1.27-1.52Z" transform="translate(-17.79 -22.97)" style="fill:#edeced"/><path d="M498.82,772.89h28.07a0,0,0,0,1,0,0v7.82a6.44,6.44,0,0,1-6.44,6.44H497.21a2.42,2.42,0,0,1-2.42-2.42v-7.82a4,4,0,0,1,4-4Z" style="fill:none;stroke:#191919;stroke-linecap:round;stroke-linejoin:round;stroke-width:2px"/><path d="M544.69,797.42v24a16.13,16.13,0,0,1-16.05,16.21h0a16.12,16.12,0,0,1-16-16.19v-16.2" transform="translate(-17.79 -22.97)" style="fill:none;stroke:#191919;stroke-linecap:round;stroke-linejoin:round;stroke-width:2px"/><path d="M570.12,876.67v-1a27.24,27.24,0,0,0-27.24-27.25H517.41a27.24,27.24,0,0,0-27.24,27.25v14.76A16.14,16.14,0,0,0,500,905.29a16.43,16.43,0,0,0,3.5,1l22.49-.18" transform="translate(-17.79 -22.97)" style="fill:none;stroke:#191919;stroke-linecap:round;stroke-linejoin:round;stroke-width:2px"/><path d="M547.55,903.58a26.09,26.09,0,0,1,23-25.9,26.1,26.1,0,1,0,0,51.8A26.09,26.09,0,0,1,547.55,903.58Z" transform="translate(-17.79 -22.97)" style="fill:#f3e5db"/><circle cx="549.44" cy="880.59" r="26.1" style="fill:none;stroke:#f47f22;stroke-linecap:round;stroke-linejoin:round;stroke-width:2px"/><line x1="514.23" y1="883.29" x2="516.98" y2="883.29" style="fill:none;stroke:#191919;stroke-linecap:round;stroke-linejoin:round;stroke-width:2px"/><polygon points="561.71 873.54 539.07 873.54 548.17 884.1 548.15 884.1 548.15 893.22 552.63 890.53 552.63 884.1 552.61 884.1 561.71 873.54" style="fill:none;stroke:#f47f22;stroke-linecap:round;stroke-linejoin:round;stroke-width:2px"/><path d="M972.06,741.69h6a0,0,0,0,1,0,0v42.25a0,0,0,0,1,0,0h-4.74a4.87,4.87,0,0,1-4.87-4.87V745.3A3.6,3.6,0,0,1,972.06,741.69Z" style="fill:#edeced"/><path d="M972.81,878l-.42-.25a18.92,18.92,0,0,1-9.19-16.22v-11a35.68,35.68,0,0,1,8.27-22.83l1.34-1.6Z" transform="translate(-17.79 -22.97)" style="fill:#edeced"/><path d="M972.64,741.1h29.7a0,0,0,0,1,0,0v8.54a6.44,6.44,0,0,1-6.44,6.44H971a2.42,2.42,0,0,1-2.42-2.42v-8.54a4,4,0,0,1,4-4Z" style="fill:none;stroke:#191919;stroke-linecap:round;stroke-linejoin:round;stroke-width:2px"/><path d="M1020.13,765.71V791a17,17,0,0,1-16.87,17h0a16.94,16.94,0,0,1-16.86-17V774" transform="translate(-17.79 -22.97)" style="fill:none;stroke:#191919;stroke-linecap:round;stroke-linejoin:round;stroke-width:2px"/><path d="M1046.85,849v-1.07a28.62,28.62,0,0,0-28.62-28.63H991.47a28.63,28.63,0,0,0-28.63,28.63v15.51a16.94,16.94,0,0,0,14,16.71l23.63-.18" transform="translate(-17.79 -22.97)" style="fill:none;stroke:#191919;stroke-linecap:round;stroke-linejoin:round;stroke-width:2px"/><path d="M1023.14,877.26a27.42,27.42,0,0,1,24.2-27.22,28.72,28.72,0,0,0-3.23-.2,27.42,27.42,0,1,0,0,54.84,28.72,28.72,0,0,0,3.23-.2A27.42,27.42,0,0,1,1023.14,877.26Z" transform="translate(-17.79 -22.97)" style="fill:#f3e5db"/><circle cx="1026.02" cy="854.27" r="27.42" style="fill:none;stroke:#f47f22;stroke-linecap:round;stroke-linejoin:round;stroke-width:2px"/><line x1="989.03" y1="857.11" x2="991.91" y2="857.11" style="fill:none;stroke:#191919;stroke-linecap:round;stroke-linejoin:round;stroke-width:2px"/><path d="M1055.16,884.77a12.75,12.75,0,0,1-23.52-6.82" transform="translate(-17.79 -22.97)" style="fill:none;stroke:#f47f22;stroke-linecap:round;stroke-linejoin:round;stroke-width:2px"/><path d="M1033.41,871.47a12.75,12.75,0,0,1,23.72,6.48" transform="translate(-17.79 -22.97)" style="fill:none;stroke:#f47f22;stroke-linecap:round;stroke-linejoin:round;stroke-width:2px"/><polyline points="1036.13 852.91 1039.52 855.86 1042.22 852.28" style="fill:none;stroke:#f47f22;stroke-linecap:round;stroke-linejoin:round;stroke-width:2px"/><polyline points="1017.58 857.24 1013.62 853.81 1010.47 858" style="fill:none;stroke:#f47f22;stroke-linecap:round;stroke-linejoin:round;stroke-width:2px"/><path d="M769.42,901.46h0a7.73,7.73,0,0,1-7.73-7.73V866.68a7.73,7.73,0,0,1,7.73-7.73v42.51Z" transform="translate(-17.79 -22.97)" style="fill:#f3e5db"/><path d="M755.63,807h3.73a0,0,0,0,1,0,0V834a0,0,0,0,1,0,0h-7.73a0,0,0,0,1,0,0V811A4,4,0,0,1,755.63,807Z" style="fill:#f3e5db"/><path d="M702.57,737.44h4.62a0,0,0,0,1,0,0v30.91a0,0,0,0,1,0,0h-3.73a4,4,0,0,1-4-4V740.54A3.11,3.11,0,0,1,702.57,737.44Z" style="fill:#edeced"/><path d="M709.52,843.49h0a7.73,7.73,0,0,1-7.72-7.73V816.44c0-4.27,3.46-11.59,7.72-11.59h0Z" transform="translate(-17.79 -22.97)" style="fill:#edeced"/><path d="M755.33,729.71h6a0,0,0,0,1,0,0v42.51a0,0,0,0,1,0,0h-4.66a5,5,0,0,1-5-5v-33.8A3.7,3.7,0,0,1,755.33,729.71Z" style="fill:#edeced"/><path d="M755.9,866.68l-.43-.26a19,19,0,0,1-9.24-16.31v-11a35.91,35.91,0,0,1,8.32-23l1.35-1.61Z" transform="translate(-17.79 -22.97)" style="fill:#edeced"/><path d="M819.68,737.44h5.37a0,0,0,0,1,0,0v30.91a0,0,0,0,1,0,0h-3.73a4,4,0,0,1-4-4V739.79A2.36,2.36,0,0,1,819.68,737.44Z" style="fill:#edeced"/><path d="M873.31,841.42l-5.35,4V806.78h0a10.21,10.21,0,0,1,7.73,9.9v20A6,6,0,0,1,873.31,841.42Z" transform="translate(-17.79 -22.97)" style="fill:#edeced"/><path d="M755.81,729.11h29.9a0,0,0,0,1,0,0v8.63a6.44,6.44,0,0,1-6.44,6.44H754.2a2.42,2.42,0,0,1-2.42-2.42v-8.63A4,4,0,0,1,755.81,729.11Z" style="fill:none;stroke:#191919;stroke-linecap:round;stroke-linejoin:round;stroke-width:2px"/><path d="M803.5,753.73v25.42a17.05,17.05,0,0,1-17,17.13h0a17,17,0,0,1-17-17.12V762" transform="translate(-17.79 -22.97)" style="fill:none;stroke:#191919;stroke-linecap:round;stroke-linejoin:round;stroke-width:2px"/><path d="M760,868.84a16.61,16.61,0,0,1-3.7-1.09A17.07,17.07,0,0,1,745.87,852v-15.6a28.79,28.79,0,0,1,28.8-28.8h26.92a28.8,28.8,0,0,1,28.8,28.8V852a17.07,17.07,0,0,1-10.56,15.78c-.39.16-.79.31-1.2.44a14.51,14.51,0,0,1-1.47.41" transform="translate(-17.79 -22.97)" style="fill:none;stroke:#191919;stroke-linecap:round;stroke-linejoin:round;stroke-width:2px"/><path d="M703.58,737.1H725.1a0,0,0,0,1,0,0v6.22a4.64,4.64,0,0,1-4.64,4.64h-18a1.74,1.74,0,0,1-1.74-1.74V740a2.9,2.9,0,0,1,2.9-2.9Z" style="fill:none;stroke:#191919;stroke-linecap:round;stroke-linejoin:round;stroke-width:2px"/><path d="M742.89,761.26v19a12.28,12.28,0,0,1-12.21,12.34h0a12.27,12.27,0,0,1-12.21-12.33V767.89" transform="translate(-17.79 -22.97)" style="fill:none;stroke:#191919;stroke-linecap:round;stroke-linejoin:round;stroke-width:2px"/><path d="M756.28,806.89" transform="translate(-17.79 -22.97)" style="fill:none;stroke:#191919;stroke-linecap:round;stroke-linejoin:round;stroke-width:2px"/><path d="M754.22,805.06l.64.52" transform="translate(-17.79 -22.97)" style="fill:none;stroke:#191919;stroke-linecap:round;stroke-linejoin:round;stroke-width:2px"/><path d="M745.28,845H713.69a12.28,12.28,0,0,1-12.28-12.28V821.45a20.74,20.74,0,0,1,20.73-20.74h19.38a20.56,20.56,0,0,1,6.54,1.06" transform="translate(-17.79 -22.97)" style="fill:none;stroke:#191919;stroke-linecap:round;stroke-linejoin:round;stroke-width:2px"/><path d="M819.7,737.1h21.52a0,0,0,0,1,0,0v6.22a4.64,4.64,0,0,1-4.64,4.64h-18a1.74,1.74,0,0,1-1.74-1.74V740A2.9,2.9,0,0,1,819.7,737.1Z" style="fill:none;stroke:#191919;stroke-linecap:round;stroke-linejoin:round;stroke-width:2px"/><path d="M859,761.26v19a12.28,12.28,0,0,1-12.21,12.34h0a12.27,12.27,0,0,1-12.21-12.33V767.89" transform="translate(-17.79 -22.97)" style="fill:none;stroke:#191919;stroke-linecap:round;stroke-linejoin:round;stroke-width:2px"/><path d="M821.2,806.89" transform="translate(-17.79 -22.97)" style="fill:none;stroke:#191919;stroke-linecap:round;stroke-linejoin:round;stroke-width:2px"/><path d="M823.27,805.06c-.22.17-.44.34-.65.52" transform="translate(-17.79 -22.97)" style="fill:none;stroke:#191919;stroke-linecap:round;stroke-linejoin:round;stroke-width:2px"/><path d="M832.2,845h31.59a12.28,12.28,0,0,0,12.29-12.28V821.45a20.74,20.74,0,0,0-20.73-20.74H836a20.57,20.57,0,0,0-6.55,1.06" transform="translate(-17.79 -22.97)" style="fill:none;stroke:#191919;stroke-linecap:round;stroke-linejoin:round;stroke-width:2px"/><path d="M802.09,903.39H775.4a14.69,14.69,0,0,1-14.65-14.65V871.38a14.69,14.69,0,0,1,14.65-14.64h26.69a14.69,14.69,0,0,1,14.64,14.64v19.19" transform="translate(-17.79 -22.97)" style="fill:none;stroke:#f47f22;stroke-linecap:round;stroke-linejoin:round;stroke-width:2px"/><path d="M813.24,898.21a14.67,14.67,0,0,1-2.93,2.63" transform="translate(-17.79 -22.97)" style="fill:none;stroke:#f47f22;stroke-linecap:round;stroke-linejoin:round;stroke-width:2px"/><path d="M770.08,854.4V842.47a13.76,13.76,0,0,1,13.72-13.72h9.88a13.76,13.76,0,0,1,13.72,13.72v13.77" transform="translate(-17.79 -22.97)" style="fill:none;stroke:#f47f22;stroke-linecap:round;stroke-linejoin:round;stroke-width:2px"/><path d="M770.08,856.24V842.47a13.76,13.76,0,0,1,13.72-13.72h9.88a13.76,13.76,0,0,1,13.72,13.72" transform="translate(-17.79 -22.97)" style="fill:none;stroke:#f47f22;stroke-linecap:round;stroke-linejoin:round;stroke-width:2px"/><line x1="770.95" y1="861.75" x2="770.95" y2="852.42" style="fill:none;stroke:#f47f22;stroke-linecap:round;stroke-linejoin:round;stroke-width:2px"/><line x1="1050.97" y1="968.6" x2="1050.97" y2="970.74" style="fill:none;stroke:#191919;stroke-linecap:round;stroke-linejoin:round;stroke-width:2px"/><path d="M955.56,954.54a11.88,11.88,0,0,0-11.88,11.87v56.84a11.88,11.88,0,0,0,11.88,11.87Z" transform="translate(-17.79 -22.97)" style="fill:#edeced"/><path d="M1038.79,1035.12H955.56a11.88,11.88,0,0,1-11.88-11.87V966.41a11.88,11.88,0,0,1,11.88-11.87h101.33a11.87,11.87,0,0,1,11.87,11.87v18.92" transform="translate(-17.79 -22.97)" style="fill:none;stroke:#191919;stroke-linecap:round;stroke-linejoin:round;stroke-width:2px"/><path d="M943.68,968.77l48,21.12a45.24,45.24,0,0,0,29.08,0l48-21.12" transform="translate(-17.79 -22.97)" style="fill:none;stroke:#191919;stroke-linecap:round;stroke-linejoin:round;stroke-width:2px"/><path d="M1046.23,1028.44a28.65,28.65,0,0,1,25.29-28.45,28.66,28.66,0,1,0,0,56.9A28.65,28.65,0,0,1,1046.23,1028.44Z" transform="translate(-17.79 -22.97)" style="fill:#f3e5db"/><circle cx="1050.03" cy="1005.45" r="28.66" style="fill:none;stroke:#f47f22;stroke-linecap:round;stroke-linejoin:round;stroke-width:2px"/><polygon points="1061.26 1013.75 1039.67 1008.35 1039.67 1000.79 1061.26 993.24 1061.26 1013.75" style="fill:none;stroke:#f47f22;stroke-linecap:round;stroke-linejoin:round;stroke-width:2px"/><line x1="1064.19" y1="1001.87" x2="1064.19" y2="1006.19" style="fill:none;stroke:#f47f22;stroke-linecap:round;stroke-linejoin:round;stroke-width:2px"/><line x1="1036.74" y1="1002.95" x2="1036.74" y2="1007.27" style="fill:none;stroke:#f47f22;stroke-linecap:round;stroke-linejoin:round;stroke-width:2px"/><line x1="1041.83" y1="1009.43" x2="1040.75" y2="1016.99" style="fill:none;stroke:#f47f22;stroke-linecap:round;stroke-linejoin:round;stroke-width:2px"/><circle cx="270.61" cy="570.2" r="10.08" style="fill:none;stroke:#191919;stroke-linecap:round;stroke-linejoin:round;stroke-width:2px"/><circle cx="321.68" cy="590.36" r="10.08" style="fill:none;stroke:#191919;stroke-linecap:round;stroke-linejoin:round;stroke-width:2px"/><line x1="269.93" y1="580.28" x2="322.35" y2="580.28" style="fill:none;stroke:#191919;stroke-linecap:round;stroke-linejoin:round;stroke-width:2px"/><circle cx="270.61" cy="610.52" r="10.08" style="fill:none;stroke:#191919;stroke-linecap:round;stroke-linejoin:round;stroke-width:2px"/><circle cx="321.68" cy="630.68" r="10.08" style="fill:none;stroke:#191919;stroke-linecap:round;stroke-linejoin:round;stroke-width:2px"/><line x1="269.93" y1="620.6" x2="322.35" y2="620.6" style="fill:none;stroke:#191919;stroke-linecap:round;stroke-linejoin:round;stroke-width:2px"/><line x1="269.93" y1="600.44" x2="322.35" y2="600.44" style="fill:none;stroke:#191919;stroke-linecap:round;stroke-linejoin:round;stroke-width:2px"/><path d="M268.66,690.43l-2.5-1.55c-5.84-5.13-11.07-5.41-11.07-14V574.78c0-8.58,5.23-11.81,11.07-14l2.87-1.54" transform="translate(-17.79 -22.97)" style="fill:#edeced"/><path d="M372.28,633.6v2" transform="translate(-17.79 -22.97)" style="fill:none;stroke:#191919;stroke-linecap:round;stroke-linejoin:round;stroke-width:2px"/><path d="M342.27,690.43H270.64a15.55,15.55,0,0,1-15.55-15.55V574.78a15.55,15.55,0,0,1,15.55-15.54h86.09a15.55,15.55,0,0,1,15.55,15.54v52.75" transform="translate(-17.79 -22.97)" style="fill:none;stroke:#191919;stroke-linecap:round;stroke-linejoin:round;stroke-width:2px"/><path d="M346.81,678.32a33.25,33.25,0,0,1,29.35-33,33.81,33.81,0,0,0-3.92-.25,33.27,33.27,0,0,0,0,66.53,33.81,33.81,0,0,0,3.92-.25A33.25,33.25,0,0,1,346.81,678.32Z" transform="translate(-17.79 -22.97)" style="fill:#f3e5db"/><circle cx="354.1" cy="655.32" r="33.26" style="fill:none;stroke:#f47f22;stroke-linecap:round;stroke-linejoin:round;stroke-width:2px"/><polyline points="360.31 640.73 346.46 654.58 364.27 654.58 349.43 669.42" style="fill:none;stroke:#f47f22;stroke-linecap:round;stroke-linejoin:round;stroke-width:2px"/><circle cx="46.86" cy="571.2" r="10.08" style="fill:none;stroke:#191919;stroke-linecap:round;stroke-linejoin:round;stroke-width:2px"/><circle cx="97.93" cy="591.36" r="10.08" style="fill:none;stroke:#191919;stroke-linecap:round;stroke-linejoin:round;stroke-width:2px"/><line x1="46.18" y1="581.28" x2="98.6" y2="581.28" style="fill:none;stroke:#191919;stroke-linecap:round;stroke-linejoin:round;stroke-width:2px"/><circle cx="46.86" cy="611.52" r="10.08" style="fill:none;stroke:#191919;stroke-linecap:round;stroke-linejoin:round;stroke-width:2px"/><circle cx="97.93" cy="631.68" r="10.08" style="fill:none;stroke:#191919;stroke-linecap:round;stroke-linejoin:round;stroke-width:2px"/><line x1="46.18" y1="621.6" x2="98.6" y2="621.6" style="fill:none;stroke:#191919;stroke-linecap:round;stroke-linejoin:round;stroke-width:2px"/><line x1="46.18" y1="601.44" x2="98.6" y2="601.44" style="fill:none;stroke:#191919;stroke-linecap:round;stroke-linejoin:round;stroke-width:2px"/><path d="M44.91,691.43l-2.5-1.55c-5.84-5.13-11.07-5.41-11.07-14V575.78c0-8.58,5.23-11.81,11.07-14l2.87-1.54" transform="translate(-17.79 -22.97)" style="fill:#edeced"/><path d="M148.53,634.6v2" transform="translate(-17.79 -22.97)" style="fill:none;stroke:#191919;stroke-linecap:round;stroke-linejoin:round;stroke-width:2px"/><path d="M118.52,691.43H46.89a15.55,15.55,0,0,1-15.55-15.55V575.78a15.55,15.55,0,0,1,15.55-15.54H133a15.55,15.55,0,0,1,15.55,15.54v52.75" transform="translate(-17.79 -22.97)" style="fill:none;stroke:#191919;stroke-linecap:round;stroke-linejoin:round;stroke-width:2px"/><path d="M123.06,679.32a33.25,33.25,0,0,1,29.35-33,33.81,33.81,0,0,0-3.92-.25,33.27,33.27,0,0,0,0,66.53,33.81,33.81,0,0,0,3.92-.25A33.25,33.25,0,0,1,123.06,679.32Z" transform="translate(-17.79 -22.97)" style="fill:#f3e5db"/><circle cx="131.35" cy="656.32" r="33.26" style="fill:none;stroke:#f47f22;stroke-linecap:round;stroke-linejoin:round;stroke-width:2px"/><path d="M137.18,679.28h5.68a7,7,0,0,1,7,7V689a7,7,0,0,1-7,7h-5.68a0,0,0,0,1,0,0V679.28A0,0,0,0,1,137.18,679.28Z" transform="translate(713.42 1049.42) rotate(135)" style="fill:none;stroke:#f47f22;stroke-linecap:round;stroke-linejoin:round;stroke-width:2px"/><line x1="118.02" y1="672.36" x2="121.24" y2="669.14" style="fill:none;stroke:#f47f22;stroke-linecap:round;stroke-linejoin:round;stroke-width:2px"/><line x1="132.7" y1="662.69" x2="135.92" y2="659.47" style="fill:none;stroke:#f47f22;stroke-linecap:round;stroke-linejoin:round;stroke-width:2px"/><line x1="127.69" y1="657.68" x2="130.91" y2="654.46" style="fill:none;stroke:#f47f22;stroke-linecap:round;stroke-linejoin:round;stroke-width:2px"/><path d="M151.72,664.73h5.68a7,7,0,0,1,7,7v2.76a7,7,0,0,1-7,7h-5.68a0,0,0,0,1,0,0V664.73A0,0,0,0,1,151.72,664.73Z" transform="translate(-447.45 285.93) rotate(-45)" style="fill:none;stroke:#f47f22;stroke-linecap:round;stroke-linejoin:round;stroke-width:2px"/><line x1="147.96" y1="642.42" x2="144.74" y2="645.64" style="fill:none;stroke:#f47f22;stroke-linecap:round;stroke-linejoin:round;stroke-width:2px"/><circle cx="501.4" cy="571.42" r="10.08" style="fill:none;stroke:#191919;stroke-linecap:round;stroke-linejoin:round;stroke-width:2px"/><circle cx="552.47" cy="591.58" r="10.08" style="fill:none;stroke:#191919;stroke-linecap:round;stroke-linejoin:round;stroke-width:2px"/><line x1="500.73" y1="581.5" x2="553.14" y2="581.5" style="fill:none;stroke:#191919;stroke-linecap:round;stroke-linejoin:round;stroke-width:2px"/><circle cx="501.4" cy="611.74" r="10.08" style="fill:none;stroke:#191919;stroke-linecap:round;stroke-linejoin:round;stroke-width:2px"/><circle cx="552.47" cy="631.89" r="10.08" style="fill:none;stroke:#191919;stroke-linecap:round;stroke-linejoin:round;stroke-width:2px"/><line x1="500.73" y1="621.82" x2="553.14" y2="621.82" style="fill:none;stroke:#191919;stroke-linecap:round;stroke-linejoin:round;stroke-width:2px"/><line x1="500.73" y1="601.66" x2="553.14" y2="601.66" style="fill:none;stroke:#191919;stroke-linecap:round;stroke-linejoin:round;stroke-width:2px"/><path d="M499.45,691.64l-2.5-1.55c-5.84-5.13-11.06-5.41-11.06-14V576c0-8.58,5.22-11.81,11.06-14l2.87-1.55" transform="translate(-17.79 -22.97)" style="fill:#edeced"/><path d="M603.07,634.81v2.05" transform="translate(-17.79 -22.97)" style="fill:none;stroke:#191919;stroke-linecap:round;stroke-linejoin:round;stroke-width:2px"/><path d="M573.07,691.64H501.43a15.54,15.54,0,0,1-15.54-15.54V576a15.54,15.54,0,0,1,15.54-15.54h86.1A15.54,15.54,0,0,1,603.07,576v52.75" transform="translate(-17.79 -22.97)" style="fill:none;stroke:#191919;stroke-linecap:round;stroke-linejoin:round;stroke-width:2px"/><path d="M729.48,681.32l-1.82-1.7c-4.27-5.63-8.1-5.93-8.1-15.35V569.75c0-9.42,3.83-13,8.1-15.36l2.1-1.69" transform="translate(-17.79 -22.97)" style="fill:#edeced"/><path d="M827.73,634.27v2.25" transform="translate(-17.79 -22.97)" style="fill:none;stroke:#191919;stroke-linecap:round;stroke-linejoin:round;stroke-width:2px"/><path d="M794.81,681.32H736.62a17.05,17.05,0,0,1-17.06-17.05V569.75a17.05,17.05,0,0,1,17.06-17h74a17.05,17.05,0,0,1,17.06,17v57.86" transform="translate(-17.79 -22.97)" style="fill:none;stroke:#191919;stroke-linecap:round;stroke-linejoin:round;stroke-width:2px"/><rect x="718.76" y="555.9" width="74.74" height="13.59" rx="1.18" style="fill:none;stroke:#333;stroke-linecap:round;stroke-linejoin:round;stroke-width:2px"/><rect x="718.76" y="581.38" width="74.74" height="13.59" rx="1.18" style="fill:none;stroke:#333;stroke-linecap:round;stroke-linejoin:round;stroke-width:2px"/><rect x="718.76" y="606.86" width="74.74" height="13.59" rx="1.18" style="fill:none;stroke:#333;stroke-linecap:round;stroke-linejoin:round;stroke-width:2px"/><path d="M802.16,679.05a32.26,32.26,0,0,1,28.48-32,34,34,0,0,0-3.8-.24,32.27,32.27,0,1,0,0,64.54,31.77,31.77,0,0,0,3.8-.24A32.26,32.26,0,0,1,802.16,679.05Z" transform="translate(-17.79 -22.97)" style="fill:#f3e5db"/><circle cx="808.7" cy="656.06" r="32.27" style="fill:none;stroke:#f47f22;stroke-linecap:round;stroke-linejoin:round;stroke-width:2px"/><circle cx="809.17" cy="656.05" r="6.45" style="fill:none;stroke:#f47f22;stroke-linecap:round;stroke-linejoin:round;stroke-width:2px"/><path d="M834.45,694h0a5.1,5.1,0,0,0-7.37,1.77h0a2.93,2.93,0,0,1-5.44-.87h0a5.1,5.1,0,0,0-6.46-4h0a2.92,2.92,0,0,1-3.23-4.46h0a5.11,5.11,0,0,0-1.76-7.37h0a2.92,2.92,0,0,1,.86-5.44h0a5.1,5.1,0,0,0,4-6.45h0a2.92,2.92,0,0,1,4.45-3.24h0a5.09,5.09,0,0,0,7.37-1.76h0a2.92,2.92,0,0,1,5.44.87h0a5.11,5.11,0,0,0,6.46,4h0a2.92,2.92,0,0,1,3.23,4.46h0a5.11,5.11,0,0,0,1.76,7.37h0a2.92,2.92,0,0,1-.86,5.43h0a5.11,5.11,0,0,0-4,6.46h0A2.92,2.92,0,0,1,834.45,694Z" transform="translate(-17.79 -22.97)" style="fill:none;stroke:#f47f22;stroke-linecap:round;stroke-linejoin:round;stroke-width:2px"/><path d="M935.05,609.07a81.53,81.53,0,0,1,159.67,23.28" transform="translate(-17.79 -22.97)" style="fill:none;stroke:#191919;stroke-linecap:round;stroke-linejoin:round;stroke-width:2px"/><polyline points="1067.61 599.56 1076.95 609.57 1086.28 599.56" style="fill:none;stroke:#191919;stroke-linecap:round;stroke-linejoin:round;stroke-width:2px"/><path d="M1081,676.69a81.52,81.52,0,0,1-148.19-46.92" transform="translate(-17.79 -22.97)" style="fill:none;stroke:#191919;stroke-linecap:round;stroke-linejoin:round;stroke-width:2px"/><path d="M1085,670.53c-.16.29-.33.58-.5.87" transform="translate(-17.79 -22.97)" style="fill:none;stroke:#191919;stroke-linecap:round;stroke-linejoin:round;stroke-width:2px"/><path d="M1092.5,653.05A81.25,81.25,0,0,1,1088,664.8" transform="translate(-17.79 -22.97)" style="fill:none;stroke:#191919;stroke-linecap:round;stroke-linejoin:round;stroke-width:2px"/><polyline points="924.36 616.61 915.02 606.6 905.68 616.61" style="fill:none;stroke:#191919;stroke-linecap:round;stroke-linejoin:round;stroke-width:2px"/><path d="M981.57,551h5.73a0,0,0,0,1,0,0V592a0,0,0,0,1,0,0h-4.46a4.87,4.87,0,0,1-4.87-4.87V554.58a3.6,3.6,0,0,1,3.6-3.6Z" style="fill:#edeced"/><path d="M982.69,684.07l-.4-.25a18.37,18.37,0,0,1-8.93-15.76V657.42a34.65,34.65,0,0,1,8-22.18l1.29-1.56Z" transform="translate(-17.79 -22.97)" style="fill:#edeced"/><path d="M982.14,550.4h28.74a0,0,0,0,1,0,0v8.12a6.44,6.44,0,0,1-6.44,6.44H980.53a2.42,2.42,0,0,1-2.42-2.42v-8.12a4,4,0,0,1,4-4Z" style="fill:none;stroke:#191919;stroke-linecap:round;stroke-linejoin:round;stroke-width:2px"/><path d="M1028.68,575v24.55a16.47,16.47,0,0,1-16.39,16.55h0a16.45,16.45,0,0,1-16.38-16.54V583" transform="translate(-17.79 -22.97)" style="fill:none;stroke:#191919;stroke-linecap:round;stroke-linejoin:round;stroke-width:2px"/><path d="M1041.87,686c.49-.11,1-.24,1.42-.39s.78-.27,1.16-.43a16.49,16.49,0,0,0,10.2-15.24V654.85A27.81,27.81,0,0,0,1026.83,627h-26A27.82,27.82,0,0,0,973,654.85v15.07a16.47,16.47,0,0,0,13.64,16.24Z" transform="translate(-17.79 -22.97)" style="fill:none;stroke:#191919;stroke-linecap:round;stroke-linejoin:round;stroke-width:2px"/><line x1="137.06" y1="970.3" x2="137.06" y2="972.53" style="fill:none;stroke:#191919;stroke-linecap:round;stroke-linejoin:round;stroke-width:2px"/><path d="M36.89,954.68a12.37,12.37,0,0,0-12.38,12.37v59.22a12.38,12.38,0,0,0,12.38,12.38Z" transform="translate(-17.79 -22.97)" style="fill:#edeced"/><path d="M123.62,1038.65H36.89a12.38,12.38,0,0,1-12.38-12.38V967.05a12.37,12.37,0,0,1,12.38-12.37H142.48a12.37,12.37,0,0,1,12.37,12.37v19.71" transform="translate(-17.79 -22.97)" style="fill:none;stroke:#191919;stroke-linecap:round;stroke-linejoin:round;stroke-width:2px"/><path d="M24.51,969.51l50,22a47.2,47.2,0,0,0,30.3,0l50-22" transform="translate(-17.79 -22.97)" style="fill:none;stroke:#191919;stroke-linecap:round;stroke-linejoin:round;stroke-width:2px"/><path d="M131.37,1031.69A29.87,29.87,0,0,1,157.73,1002a31.53,31.53,0,0,0-3.52-.22,29.87,29.87,0,0,0,0,59.73,29.31,29.31,0,0,0,3.52-.22A29.86,29.86,0,0,1,131.37,1031.69Z" transform="translate(-17.79 -22.97)" style="fill:#f3e5db"/><circle cx="136.08" cy="1008.7" r="29.87" style="fill:none;stroke:#f47f22;stroke-linecap:round;stroke-linejoin:round;stroke-width:2px"/><circle cx="122.82" cy="1007.94" r="4.01" style="fill:none;stroke:#f47f22;stroke-linecap:round;stroke-linejoin:round;stroke-width:2px"/><circle cx="145.74" cy="997.63" r="4.01" style="fill:none;stroke:#f47f22;stroke-linecap:round;stroke-linejoin:round;stroke-width:2px"/><circle cx="145.74" cy="1018.26" r="4.01" style="fill:none;stroke:#f47f22;stroke-linecap:round;stroke-linejoin:round;stroke-width:2px"/><line x1="126.83" y1="1005.08" x2="141.73" y2="999.35" style="fill:none;stroke:#f47f22;stroke-linecap:round;stroke-linejoin:round;stroke-width:2px"/><line x1="141.73" y1="1017.68" x2="125.69" y2="1010.81" style="fill:none;stroke:#f47f22;stroke-linecap:round;stroke-linejoin:round;stroke-width:2px"/><line x1="136.33" y1="239.11" x2="136.33" y2="241.32" style="fill:none;stroke:#191919;stroke-linecap:round;stroke-linejoin:round;stroke-width:2px"/><path d="M37.29,223.86A12.25,12.25,0,0,0,25,236.11v58.66A12.26,12.26,0,0,0,37.29,307Z" transform="translate(-17.79 -22.97)" style="fill:#edeced"/><path d="M123.19,307H37.29A12.26,12.26,0,0,1,25,294.77V236.11a12.25,12.25,0,0,1,12.26-12.25H141.87a12.25,12.25,0,0,1,12.26,12.25v19.52" transform="translate(-17.79 -22.97)" style="fill:none;stroke:#191919;stroke-linecap:round;stroke-linejoin:round;stroke-width:2px"/><path d="M25,238.55l49.54,21.79a46.62,46.62,0,0,0,30,0l49.54-21.79" transform="translate(-17.79 -22.97)" style="fill:none;stroke:#191919;stroke-linecap:round;stroke-linejoin:round;stroke-width:2px"/><path d="M130.87,300.13A29.57,29.57,0,0,1,157,270.77a30.67,30.67,0,0,0-3.48-.22,29.58,29.58,0,0,0,0,59.16,28.52,28.52,0,0,0,3.48-.22A29.57,29.57,0,0,1,130.87,300.13Z" transform="translate(-17.79 -22.97)" style="fill:#f3e5db"/><circle cx="135.36" cy="277.14" r="29.58" style="fill:none;stroke:#f47f22;stroke-linecap:round;stroke-linejoin:round;stroke-width:2px"/><line x1="135.23" y1="270.5" x2="135.23" y2="296.24" style="fill:none;stroke:#f47f22;stroke-linecap:round;stroke-linejoin:round;stroke-width:2px"/><path d="M168.47,303.77a15.45,15.45,0,1,1-30.89,0" transform="translate(-17.79 -22.97)" style="fill:none;stroke:#f47f22;stroke-linecap:round;stroke-linejoin:round;stroke-width:2px"/><line x1="150.68" y1="280.8" x2="147" y2="284.47" style="fill:none;stroke:#f47f22;stroke-linecap:round;stroke-linejoin:round;stroke-width:2px"/><line x1="119.78" y1="280.8" x2="123.46" y2="284.47" style="fill:none;stroke:#f47f22;stroke-linecap:round;stroke-linejoin:round;stroke-width:2px"/><line x1="119.78" y1="280.8" x2="123.46" y2="284.47" style="fill:none;stroke:#f47f22;stroke-linecap:round;stroke-linejoin:round;stroke-width:2px"/><circle cx="135.23" cy="263.8" r="5.66" style="fill:none;stroke:#f47f22;stroke-linecap:round;stroke-linejoin:round;stroke-width:2px"/><line x1="475.98" y1="981.98" x2="467.11" y2="981.98" style="fill:none;stroke:#f47f22;stroke-linecap:round;stroke-linejoin:round;stroke-width:2px"/><line x1="477.25" y1="997.19" x2="465.84" y2="997.19" style="fill:none;stroke:#f47f22;stroke-linecap:round;stroke-linejoin:round;stroke-width:2px"/><line x1="587.26" y1="980.04" x2="587.26" y2="981.92" style="fill:none;stroke:#191919;stroke-linecap:round;stroke-linejoin:round;stroke-width:2px"/><path d="M505.49,1042.49v-72A10.44,10.44,0,0,0,495,980.89v50a10.44,10.44,0,0,0,10.45,10.44" transform="translate(-17.79 -22.97)" style="fill:#edeced"/><path d="M578.69,1041.31h-73.2A10.44,10.44,0,0,1,495,1030.87v-50a10.44,10.44,0,0,1,10.45-10.44H594.6a10.44,10.44,0,0,1,10.45,10.44v16.63" transform="translate(-17.79 -22.97)" style="fill:none;stroke:#191919;stroke-linecap:round;stroke-linejoin:round;stroke-width:2px"/><path d="M495,983l42.22,18.57a39.7,39.7,0,0,0,25.57,0L605.05,983" transform="translate(-17.79 -22.97)" style="fill:none;stroke:#191919;stroke-linecap:round;stroke-linejoin:round;stroke-width:2px"/><path d="M585.23,1035.44a25.2,25.2,0,0,1,22.24-25,24.12,24.12,0,0,0-3-.19,25.21,25.21,0,1,0,0,50.41,26.28,26.28,0,0,0,3-.18A25.21,25.21,0,0,1,585.23,1035.44Z" transform="translate(-17.79 -22.97)" style="fill:#f3e5db"/><circle cx="586.43" cy="1012.45" r="25.21" style="fill:none;stroke:#f47f22;stroke-linecap:round;stroke-linejoin:round;stroke-width:2px"/><path d="M612.79,1037.37c0,.17,0,.32,0,.49a10.23,10.23,0,1,1-10.72-10.22" transform="translate(-17.79 -22.97)" style="fill:none;stroke:#f47f22;stroke-linecap:round;stroke-linejoin:round;stroke-width:2px"/><polyline points="584.29 1004.67 584.29 1014.4 594.99 1014.4" style="fill:none;stroke:#f47f22;stroke-linecap:round;stroke-linejoin:round;stroke-width:2px"/><path d="M616.68,1033.29H606v-9.73h.49A10.22,10.22,0,0,1,616.68,1033.29Z" transform="translate(-17.79 -22.97)" style="fill:none;stroke:#f47f22;stroke-linecap:round;stroke-linejoin:round;stroke-width:2px"/><line x1="487.39" y1="989.58" x2="469.65" y2="989.58" style="fill:none;stroke:#f47f22;stroke-linecap:round;stroke-linejoin:round;stroke-width:2px"/><line x1="816.67" y1="979.91" x2="816.67" y2="981.79" style="fill:none;stroke:#191919;stroke-linecap:round;stroke-linejoin:round;stroke-width:2px"/><path d="M735.09,970.37a10.43,10.43,0,0,0-10.42,10.43v49.88a10.43,10.43,0,0,0,10.42,10.43Z" transform="translate(-17.79 -22.97)" style="fill:#edeced"/><path d="M808.16,1041.11H735.09a10.43,10.43,0,0,1-10.42-10.43V980.8a10.43,10.43,0,0,1,10.42-10.43H824a10.42,10.42,0,0,1,10.42,10.43v16.6" transform="translate(-17.79 -22.97)" style="fill:none;stroke:#191919;stroke-linecap:round;stroke-linejoin:round;stroke-width:2px"/><path d="M724.67,982.86l42.13,18.54a39.71,39.71,0,0,0,25.53,0l42.13-18.54" transform="translate(-17.79 -22.97)" style="fill:none;stroke:#191919;stroke-linecap:round;stroke-linejoin:round;stroke-width:2px"/><path d="M814.69,1035.24a25.15,25.15,0,0,1,22.2-25,26.43,26.43,0,0,0-3-.19,25.16,25.16,0,1,0,0,50.32,24.25,24.25,0,0,0,3-.19A25.15,25.15,0,0,1,814.69,1035.24Z" transform="translate(-17.79 -22.97)" style="fill:#f3e5db"/><circle cx="815.84" cy="1012.25" r="25.16" style="fill:none;stroke:#f47f22;stroke-linecap:round;stroke-linejoin:round;stroke-width:2px"/><line x1="717" y1="991.96" x2="699.28" y2="991.96" style="fill:none;stroke:#f47f22;stroke-linecap:round;stroke-linejoin:round;stroke-width:2px"/><line x1="704.35" y1="984.37" x2="695.49" y2="984.37" style="fill:none;stroke:#f47f22;stroke-linecap:round;stroke-linejoin:round;stroke-width:2px"/><line x1="706.88" y1="999.55" x2="695.49" y2="999.55" style="fill:none;stroke:#f47f22;stroke-linecap:round;stroke-linejoin:round;stroke-width:2px"/><line x1="808.74" y1="1012.21" x2="812.53" y2="1016" style="fill:none;stroke:#f47f22;stroke-linecap:round;stroke-linejoin:round;stroke-width:2px"/><line x1="822.66" y1="1005.88" x2="812.53" y2="1016" style="fill:none;stroke:#f47f22;stroke-linecap:round;stroke-linejoin:round;stroke-width:2px"/><path d="M375.87,957.19h22.47a12,12,0,0,1,12,12v67.88a12,12,0,0,1-12,12H377.22" transform="translate(-17.79 -22.97)" style="fill:none;stroke:#989898;stroke-linecap:round;stroke-linejoin:round;stroke-width:2px"/><polyline points="358.93 952.83 378.34 952.83 378.34 974.72 358.93 974.72" style="fill:none;stroke:#989898;stroke-linecap:round;stroke-linejoin:round;stroke-width:2px"/><polyline points="358.02 983.47 377.8 983.47 377.8 1000.98 358.02 1000.98" style="fill:none;stroke:#989898;stroke-linecap:round;stroke-linejoin:round;stroke-width:2px"/><line x1="358.38" y1="1015.21" x2="377.8" y2="1015.21" style="fill:none;stroke:#989898;stroke-linecap:round;stroke-linejoin:round;stroke-width:2px"/><path d="M380.26,966" transform="translate(-17.79 -22.97)" style="fill:none;stroke:#989898;stroke-linecap:round;stroke-linejoin:round;stroke-width:2px"/><path d="M377,966" transform="translate(-17.79 -22.97)" style="fill:none;stroke:#989898;stroke-linecap:round;stroke-linejoin:round;stroke-width:2px"/><line x1="366.85" y1="942.98" x2="370.13" y2="942.98" style="fill:none;stroke:#989898;stroke-linecap:round;stroke-linejoin:round;stroke-width:2px"/><line x1="373.42" y1="942.98" x2="376.7" y2="942.98" style="fill:none;stroke:#989898;stroke-linecap:round;stroke-linejoin:round;stroke-width:2px"/><rect x="236.22" y="952.83" width="7.11" height="21.89" style="fill:#edeced"/><path d="M271.59,1049.13H251.82a12,12,0,0,1-12-12V969.22a12,12,0,0,1,12-12h19.77" transform="translate(-17.79 -22.97)" style="fill:none;stroke:#989898;stroke-linecap:round;stroke-linejoin:round;stroke-width:2px"/><polyline points="254.29 974.72 236.22 974.72 236.22 952.83 252.94 952.83" style="fill:none;stroke:#989898;stroke-linecap:round;stroke-linejoin:round;stroke-width:2px"/><path d="M309.29,1024" transform="translate(-17.79 -22.97)" style="fill:none;stroke:#989898;stroke-linecap:round;stroke-linejoin:round;stroke-width:2px"/><line x1="236.77" y1="985.66" x2="254.28" y2="985.66" style="fill:none;stroke:#989898;stroke-linecap:round;stroke-linejoin:round;stroke-width:2px"/><line x1="236.77" y1="1000.98" x2="253.27" y2="1000.98" style="fill:none;stroke:#989898;stroke-linecap:round;stroke-linejoin:round;stroke-width:2px"/><line x1="236.77" y1="993.32" x2="253.27" y2="993.32" style="fill:none;stroke:#989898;stroke-linecap:round;stroke-linejoin:round;stroke-width:2px"/><line x1="235.68" y1="1015.21" x2="253.74" y2="1015.21" style="fill:none;stroke:#989898;stroke-linecap:round;stroke-linejoin:round;stroke-width:2px"/><rect x="309.64" y="984.11" width="6.07" height="21.57" style="fill:#f3e5db"/><rect x="271.89" y="946.36" width="8.76" height="26.97" style="fill:#f3e5db"/><rect x="254.36" y="923.43" width="103.83" height="113.27" rx="8.92" style="fill:none;stroke:#191919;stroke-linecap:round;stroke-linejoin:round;stroke-width:2px"/><rect x="271.89" y="946.36" width="68.77" height="26.97" style="fill:none;stroke:#f47f22;stroke-linecap:round;stroke-linejoin:round;stroke-width:2px"/><rect x="308.97" y="984.11" width="31.01" height="21.57" style="fill:none;stroke:#f47f22;stroke-linecap:round;stroke-linejoin:round;stroke-width:2px"/><line x1="272.56" y1="986.81" x2="294.14" y2="986.81" style="fill:none;stroke:#191919;stroke-linecap:round;stroke-linejoin:round;stroke-width:2px"/><line x1="272.56" y1="1005.69" x2="299.53" y2="1005.69" style="fill:none;stroke:#191919;stroke-linecap:round;stroke-linejoin:round;stroke-width:2px"/><line x1="272.56" y1="996.25" x2="299.53" y2="996.25" style="fill:none;stroke:#191919;stroke-linecap:round;stroke-linejoin:round;stroke-width:2px"/><line x1="271.21" y1="1023.22" x2="339.98" y2="1023.22" style="fill:none;stroke:#191919;stroke-linecap:round;stroke-linejoin:round;stroke-width:2px"/><line x1="317.06" y1="934.22" x2="321.11" y2="934.22" style="fill:none;stroke:#191919;stroke-linecap:round;stroke-linejoin:round;stroke-width:2px"/><line x1="326.5" y1="934.22" x2="330.54" y2="934.22" style="fill:none;stroke:#191919;stroke-linecap:round;stroke-linejoin:round;stroke-width:2px"/><line x1="334.59" y1="934.22" x2="338.63" y2="934.22" style="fill:none;stroke:#191919;stroke-linecap:round;stroke-linejoin:round;stroke-width:2px"/><path d="M577.6,679.53a33.26,33.26,0,0,1,29.35-33,33.64,33.64,0,0,0-3.91-.25,33.26,33.26,0,0,0,0,66.52,33.64,33.64,0,0,0,3.91-.25A33.26,33.26,0,0,1,577.6,679.53Z" transform="translate(-17.79 -22.97)" style="fill:#f3e5db"/><circle cx="584.89" cy="656.54" r="33.26" style="fill:none;stroke:#f47f22;stroke-linecap:round;stroke-linejoin:round;stroke-width:2px"/><line x1="582.99" y1="645.25" x2="582.99" y2="660.64" style="fill:none;stroke:#f47f22;stroke-linecap:round;stroke-linejoin:round;stroke-width:2px"/><line x1="593.76" y1="660.64" x2="582.99" y2="660.64" style="fill:none;stroke:#f47f22;stroke-linecap:round;stroke-linejoin:round;stroke-width:2px"/></svg>